# xmcd
#
# Track frame offsets:
#	150
#	8037
#	20980
#	36157
#	44830
#	55736
#	70169
#	80657
#	91158
#	112004
#	123197
#
# Disc length: 1812 seconds
#
# Revision: 0
# Processed by: cddbd v1.5.2PL0 Copyright (c) Steve Scherf et al.
# Submitted via: EasyCDDAExtractor 9.1.0.1
#
DISCID=9207120b
DTITLE=Ronnie Byrd - Desert Of Life
DYEAR=2005
DGENRE=Gospel
TTITLE0=He Helps Me Climb That Hill
TTITLE1=Jesus Is Everywhere I Look
TTITLE2=Loving You Through The Test
TTITLE3=Desert Of Life
TTITLE4=State Of Georgia
TTITLE5=All For The Love Of Sinners
TTITLE6=Life's Stormy Weather
TTITLE7=Working Like A Truck For The Lord
TTITLE8=Jesus Is The Man
TTITLE9=Just Take Good Care Of Her
TTITLE10=What a Wonderful Feeling
EXTD=
EXTT0=
EXTT1=
EXTT2=
EXTT3=
EXTT4=
EXTT5=
EXTT6=
EXTT7=
EXTT8=
EXTT9=
EXTT10=
PLAYORDER=
